<?xml version="1.0" standalone="no"?>
<!DOCTYPE svg PUBLIC "-//W3C//DTD SVG 20010904//EN"
 "http://www.w3.org/TR/2001/REC-SVG-20010904/DTD/svg10.dtd">
<svg version="1.0" xmlns="http://www.w3.org/2000/svg"
 width="1920.000000pt" height="1080.000000pt" viewBox="0 0 1920.000000 1080.000000"
 preserveAspectRatio="xMidYMid meet">

<g transform="translate(0.000000,1080.000000) scale(0.100000,-0.100000)"
fill="#000000" stroke="none">
<path d="M0 5400 l0 -5400 9600 0 9600 0 0 5400 0 5400 -9600 0 -9600 0 0
-5400z m8599 1699 c274 -152 381 -217 381 -229 0 -18 -859 -870 -878 -870 -5
0 -13 7 -16 16 -3 9 -6 281 -6 605 0 633 0 637 51 673 49 34 71 25 468 -195z
m1266 -703 c94 -52 181 -106 194 -120 14 -15 25 -42 28 -68 4 -37 1 -49 -21
-75 -31 -37 -1717 -978 -1738 -970 -15 5 122 144 826 836 327 321 507 491 520
491 11 0 97 -42 191 -94z"/>
</g>
</svg>
