<svg id="svg" version="1.1" xmlns="http://www.w3.org/2000/svg" xmlns:xlink="http://www.w3.org/1999/xlink" width="400" height="225" viewBox="0, 0, 400,225"><g id="svgg"><path id="path0" d="M141.212 51.358 C 141.085 51.485,139.869 51.676,139.119 51.688 C 138.920 51.691,138.703 51.782,138.636 51.892 C 138.568 52.001,138.421 52.034,138.310 51.965 C 138.198 51.896,137.994 51.933,137.855 52.048 C 137.717 52.162,137.534 52.264,137.448 52.274 C 137.362 52.284,137.245 52.303,137.188 52.318 C 137.130 52.332,136.990 52.367,136.875 52.396 C 136.760 52.424,136.643 52.467,136.615 52.489 C 136.586 52.512,136.332 52.573,136.051 52.625 C 135.769 52.677,135.466 52.834,135.377 52.974 C 135.288 53.114,135.213 53.157,135.212 53.069 C 135.208 52.913,133.122 53.888,132.917 54.142 C 132.859 54.213,132.450 54.456,132.007 54.681 C 131.564 54.907,131.156 55.212,131.099 55.358 C 131.043 55.505,130.888 55.625,130.754 55.625 C 129.041 55.625,122.761 66.024,122.386 69.479 C 122.283 70.432,122.306 121.458,122.410 122.292 C 122.524 123.210,122.643 123.854,122.697 123.854 C 122.720 123.854,122.780 124.072,122.829 124.339 C 123.233 126.518,127.693 133.833,129.295 134.942 C 129.589 135.146,129.983 135.477,130.170 135.677 C 131.320 136.912,130.778 137.369,146.113 122.225 C 153.808 114.626,162.003 106.552,164.323 104.282 L 168.542 100.155 168.542 87.359 C 168.542 73.123,168.496 73.592,169.929 72.994 C 170.813 72.624,169.841 72.163,179.740 77.649 L 187.083 81.719 191.302 77.633 C 204.585 64.768,217.154 52.151,217.024 51.812 C 216.897 51.481,214.479 51.458,179.538 51.455 C 158.995 51.454,141.998 51.402,141.766 51.339 C 141.533 51.277,141.284 51.285,141.212 51.358 M236.092 56.241 C 235.373 56.361,201.544 89.424,201.768 89.787 C 201.824 89.878,203.020 90.584,204.425 91.356 C 209.565 94.180,210.000 94.545,210.000 96.028 C 210.000 97.188,209.103 97.745,191.667 107.409 C 182.214 112.648,174.104 117.191,173.646 117.505 C 172.451 118.323,151.601 138.905,151.367 139.498 C 151.260 139.769,151.220 140.040,151.278 140.098 C 151.411 140.230,225.664 140.219,226.667 140.086 C 227.068 140.033,227.558 139.986,227.756 139.982 C 227.955 139.977,228.172 139.884,228.239 139.775 C 228.307 139.666,228.454 139.633,228.565 139.702 C 228.677 139.771,228.905 139.714,229.072 139.576 C 229.238 139.437,229.375 139.394,229.375 139.479 C 229.375 139.565,229.492 139.537,229.635 139.418 C 229.779 139.299,229.966 139.194,230.052 139.184 C 230.138 139.175,230.232 139.160,230.260 139.151 C 230.289 139.143,230.543 139.093,230.824 139.042 C 231.106 138.990,231.409 138.833,231.498 138.693 C 231.587 138.552,231.662 138.509,231.663 138.597 C 231.667 138.754,233.753 137.779,233.958 137.525 C 234.016 137.454,234.425 137.211,234.868 136.985 C 235.311 136.760,235.719 136.455,235.776 136.308 C 235.832 136.162,235.977 136.042,236.099 136.042 C 236.220 136.042,236.468 135.903,236.649 135.735 C 236.831 135.566,237.337 135.129,237.774 134.763 C 239.337 133.458,241.998 129.449,243.122 126.707 C 243.436 125.940,243.771 125.125,243.866 124.896 C 243.961 124.667,244.057 124.385,244.079 124.271 C 244.101 124.156,244.141 124.016,244.169 123.958 C 244.241 123.812,244.359 123.146,244.465 122.292 C 244.573 121.431,244.590 70.393,244.483 69.479 C 243.959 64.989,238.192 55.890,236.092 56.241 " stroke="none" fill="#d33434" fill-rule="evenodd"></path><path id="path1" d="M0.000 1.787 L 0.000 2.949 1.198 1.953 C 1.857 1.405,2.485 0.882,2.594 0.791 C 2.703 0.700,2.164 0.625,1.396 0.625 L 0.000 0.625 0.000 1.787 M126.667 0.965 C 135.196 3.687,151.628 5.637,167.874 5.855 C 169.706 5.879,169.582 5.926,165.729 6.668 C 130.019 13.544,101.390 42.069,94.074 78.064 C 92.434 86.132,91.944 101.195,93.083 108.542 C 97.833 139.181,115.431 163.857,142.188 177.396 C 191.641 202.420,251.114 178.515,269.691 126.146 C 275.460 109.884,276.235 90.063,271.769 72.987 C 263.509 41.405,238.332 16.143,206.956 7.955 L 204.015 7.188 211.331 7.188 C 223.964 7.188,231.997 5.591,242.083 1.074 L 243.021 0.654 184.375 0.660 C 133.104 0.665,125.847 0.704,126.667 0.965 M191.042 29.607 C 199.299 30.584,206.154 32.645,213.542 36.370 C 217.994 38.616,224.556 42.820,224.576 43.440 C 224.580 43.555,222.904 45.328,220.851 47.378 C 217.632 50.594,217.159 51.147,217.413 51.401 C 217.576 51.564,217.708 51.814,217.708 51.958 C 217.708 52.229,189.328 80.441,168.750 100.626 C 162.276 106.976,151.558 117.519,144.932 124.055 C 131.426 137.376,132.735 136.206,131.198 136.331 L 130.044 136.425 128.616 134.561 C 125.192 130.092,124.454 128.848,123.032 125.157 C 122.535 123.868,121.646 121.614,121.057 120.149 C 114.961 104.988,115.075 86.283,121.354 71.354 C 121.885 70.094,122.506 68.408,122.735 67.609 C 123.622 64.519,126.258 59.933,128.546 57.500 C 129.138 56.870,130.247 55.558,131.009 54.585 C 145.147 36.550,168.298 26.917,191.042 29.607 M0.000 36.205 C 0.000 39.094,0.041 41.458,0.092 41.458 C 0.142 41.458,0.963 41.098,1.915 40.658 C 4.000 39.693,6.341 38.750,6.650 38.750 C 7.102 38.750,6.841 38.394,5.194 36.766 C 4.270 35.852,2.846 34.307,2.030 33.333 C 1.214 32.359,0.423 31.425,0.273 31.257 C 0.047 31.005,0.000 31.856,0.000 36.205 M238.292 57.433 C 240.482 59.752,242.892 63.750,243.856 66.667 C 244.065 67.297,244.724 68.984,245.321 70.417 C 252.442 87.490,252.186 107.006,244.629 123.364 C 244.182 124.331,243.749 125.393,243.666 125.724 C 243.315 127.123,240.814 131.539,239.651 132.813 C 239.442 133.042,238.666 134.073,237.927 135.104 C 218.815 161.777,183.160 170.716,153.958 156.155 C 149.880 154.121,143.806 150.343,142.943 149.302 C 142.719 149.032,143.312 148.363,146.956 144.779 C 151.174 140.631,151.226 140.568,150.794 140.218 C 150.466 139.953,150.406 139.774,150.553 139.510 C 150.776 139.113,184.124 106.055,195.833 94.625 C 200.016 90.542,210.507 80.229,219.148 71.707 C 227.789 63.185,235.054 56.129,235.294 56.028 C 236.192 55.648,236.936 55.997,238.292 57.433 M399.504 159.479 C 398.872 161.158,397.393 164.778,396.695 166.354 C 396.339 167.156,395.708 168.750,395.291 169.896 C 394.875 171.042,394.089 172.964,393.545 174.167 C 393.001 175.370,392.341 177.010,392.078 177.813 C 391.816 178.615,391.287 180.050,390.905 181.001 C 390.056 183.111,390.054 183.233,390.834 186.425 C 392.167 191.885,394.451 198.050,397.937 205.594 L 399.896 209.833 399.950 197.000 C 400.068 168.573,399.946 158.303,399.504 159.479 " stroke="none" fill="#2c2b2b" fill-rule="evenodd"></path><path id="path2" d="M169.857 73.015 C 168.500 73.602,168.533 73.242,168.592 87.007 C 168.627 95.066,168.719 99.469,168.854 99.514 C 169.346 99.677,186.996 81.933,186.667 81.607 C 186.313 81.257,171.502 73.021,170.906 72.843 C 170.694 72.780,170.222 72.857,169.857 73.015 M187.920 103.153 C 175.445 115.455,174.267 116.667,174.778 116.667 C 175.249 116.667,208.908 97.825,209.427 97.271 C 210.540 96.084,210.053 94.604,208.181 93.480 C 205.661 91.969,201.942 90.000,201.606 90.000 C 201.414 90.000,195.255 95.919,187.920 103.153 " stroke="none" fill="#eee1e1" fill-rule="evenodd"></path><path id="path3" d="M179.372 51.457 C 213.650 51.553,216.979 51.592,217.038 51.896 C 217.078 52.108,211.651 57.601,202.249 66.862 C 194.080 74.910,187.367 81.663,187.332 81.868 C 187.258 82.310,169.115 100.208,168.742 100.208 C 168.451 100.208,165.567 103.014,146.113 122.225 C 133.343 134.836,132.061 136.043,131.426 136.056 C 130.866 136.068,130.811 136.103,131.146 136.234 C 132.068 136.596,132.784 136.004,139.953 128.946 C 143.932 125.029,156.844 112.325,168.646 100.714 C 210.261 59.775,217.788 52.245,217.621 51.719 L 217.472 51.250 179.621 51.301 L 141.771 51.352 179.372 51.457 M235.294 56.036 C 235.054 56.133,227.789 63.185,219.148 71.707 C 210.507 80.229,200.016 90.542,195.833 94.625 C 184.502 105.687,150.779 139.107,150.567 139.485 C 150.023 140.459,148.387 140.420,187.994 140.365 L 225.104 140.314 188.177 140.260 C 151.426 140.207,151.250 140.205,151.250 139.791 C 151.250 139.432,162.002 128.601,170.878 120.019 C 171.992 118.943,172.852 117.981,172.791 117.881 C 172.651 117.656,174.519 115.769,189.063 101.445 C 195.479 95.125,200.973 89.848,201.270 89.717 C 201.567 89.586,209.372 82.026,218.612 72.917 C 232.504 59.223,235.523 56.343,236.044 56.289 C 236.391 56.253,236.620 56.135,236.554 56.028 C 236.409 55.793,235.886 55.796,235.294 56.036 M238.689 58.021 C 240.080 59.806,240.966 61.132,241.872 62.783 C 242.868 64.597,243.198 64.924,242.376 63.281 C 241.608 61.747,239.766 59.029,238.741 57.917 L 237.877 56.979 238.689 58.021 M127.434 58.802 C 125.976 60.596,123.101 65.668,123.133 66.388 C 123.137 66.484,123.645 65.561,124.261 64.338 C 125.350 62.174,126.517 60.293,127.760 58.698 C 128.599 57.621,128.321 57.710,127.434 58.802 M242.931 64.688 C 242.931 64.802,243.065 65.130,243.229 65.417 C 243.393 65.703,243.527 65.844,243.527 65.729 C 243.527 65.615,243.393 65.286,243.229 65.000 C 243.065 64.714,242.931 64.573,242.931 64.688 M122.184 95.833 C 122.184 109.526,122.209 115.128,122.240 108.281 C 122.270 101.435,122.270 90.232,122.240 83.385 C 122.209 76.539,122.184 82.141,122.184 95.833 M244.684 95.833 C 244.684 109.526,244.709 115.128,244.740 108.281 C 244.770 101.435,244.770 90.232,244.740 83.385 C 244.709 76.539,244.684 82.141,244.684 95.833 M123.753 126.954 C 123.748 127.238,125.391 130.252,125.867 130.835 L 126.291 131.354 125.872 130.625 C 125.642 130.224,125.071 129.193,124.605 128.333 C 124.138 127.474,123.755 126.853,123.753 126.954 M241.771 129.375 C 241.593 129.719,241.495 130.000,241.552 130.000 C 241.609 130.000,241.801 129.719,241.979 129.375 C 242.157 129.031,242.255 128.750,242.198 128.750 C 242.141 128.750,241.949 129.031,241.771 129.375 M241.121 130.469 C 240.404 131.685,240.357 131.789,240.722 131.354 C 241.146 130.850,241.510 130.208,241.374 130.208 C 241.319 130.208,241.206 130.326,241.121 130.469 M126.662 132.077 C 126.904 132.417,127.209 132.761,127.339 132.842 C 127.469 132.922,127.313 132.644,126.992 132.223 C 126.296 131.310,126.033 131.194,126.662 132.077 " stroke="none" fill="#763a3a" fill-rule="evenodd"></path><path id="path4" d="M186.793 81.753 C 186.923 82.092,169.277 99.491,168.845 99.450 C 168.676 99.434,168.542 99.596,168.542 99.815 C 168.542 100.603,169.150 100.058,178.144 91.214 C 187.054 82.454,187.621 81.838,186.990 81.595 C 186.798 81.522,186.726 81.580,186.793 81.753 M198.151 92.552 C 186.623 103.810,172.653 117.722,172.764 117.834 C 172.968 118.037,174.761 116.830,174.657 116.559 C 174.540 116.254,201.151 90.000,201.578 90.000 C 201.755 90.000,201.842 89.906,201.771 89.792 C 201.504 89.361,201.114 89.658,198.151 92.552 " stroke="none" fill="#888484" fill-rule="evenodd"></path></g></svg>