<svg viewBox="0 0 32 32" xml:space="preserve" xmlns="http://www.w3.org/2000/svg"><path d="M27 9.322A4.322 4.322 0 0 0 22.679 5H9.32A4.322 4.322 0 0 0 5 9.322v13.356A4.322 4.322 0 0 0 9.321 27H22.68A4.322 4.322 0 0 0 27 22.678V9.322zm-2 13.356A2.321 2.321 0 0 1 22.679 25H9.32A2.321 2.321 0 0 1 7 22.678V9.322A2.321 2.321 0 0 1 9.321 7H22.68A2.321 2.321 0 0 1 25 9.322v13.356zM19.062 22a1 1 0 0 1-1 1h-4a1 1 0 1 1 0-2H15v-6h-.938a1 1 0 1 1 0-2H17v8h1.063a1 1 0 0 1 1 1zM14.5 10.562a1.5 1.5 0 1 1 3 0 1.5 1.5 0 0 1-3 0z" fill="#231f20" class="fill-000000"></path></svg>