<?xml version="1.0" ?><svg viewBox="0 0 32 32" xmlns="http://www.w3.org/2000/svg"><defs><style>.cls-1{fill:#231f20;}</style></defs><g id="help"><path class="cls-1" d="M11,10.11a1,1,0,0,1-1-1A6.06,6.06,0,0,1,16,3a1,1,0,0,1,0,2,4.06,4.06,0,0,0-4,4.11A1,1,0,0,1,11,10.11Z"/><path class="cls-1" d="M16,24a1,1,0,0,1-1-1V19.06a7.9,7.9,0,0,1,3.24-6.55A4.15,4.15,0,0,0,20,9.11,4.06,4.06,0,0,0,16,5a1,1,0,0,1,0-2,6.06,6.06,0,0,1,6,6.11,6.13,6.13,0,0,1-2.62,5A5.91,5.91,0,0,0,17,19.06V23A1,1,0,0,1,16,24Z"/><path class="cls-1" d="M16,28a1,1,0,0,1,0-2h0a1,1,0,0,1,0,2Z"/></g></svg>