<svg viewBox="0 0 32 32" xmlns="http://www.w3.org/2000/svg"><path d="M22.68 29H9.32a3 3 0 0 1-3-2.56l-3-20a3 3 0 0 1 3-3.44h19.36a3 3 0 0 1 3 3.45l-3 20a3 3 0 0 1-3 2.55ZM6.32 5a1 1 0 0 0-.76.35 1 1 0 0 0-.23.8l3 20a1 1 0 0 0 1 .85h13.35a1 1 0 0 0 1-.85l3-20a1 1 0 0 0-.23-.8 1 1 0 0 0-.77-.35Z" fill="#fcfcfc" class="fill-231f20"></path><path d="M12.61 20.39a1 1 0 0 1-.71-.29 1 1 0 0 1 0-1.41l6.79-6.79a1 1 0 1 1 1.41 1.41l-6.79 6.79a1 1 0 0 1-.7.29Z" fill="#fcfcfc" class="fill-231f20"></path><path d="M19.39 20.39a1 1 0 0 1-.7-.29l-6.79-6.79a1 1 0 0 1 1.41-1.41l6.79 6.79a1 1 0 0 1 0 1.41 1 1 0 0 1-.71.29Z" fill="#fcfcfc" class="fill-231f20"></path></svg>