<!DOCTYPE svg PUBLIC "-//W3C//DTD SVG 1.1//EN" "http://www.w3.org/Graphics/SVG/1.1/DTD/svg11.dtd">
<!-- Uploaded to: SVG Repo, www.svgrepo.com, Transformed by: SVG Repo Mixer Tools -->
<svg width="800px" height="800px" viewBox="-1.6 -1.6 19.20 19.20" xmlns="http://www.w3.org/2000/svg" fill="#43494a" class="bi bi-stopwatch-fill" stroke="#43494a" stroke-width="0.00016" transform="rotate(0)matrix(1, 0, 0, 1, 0, 0)">
<g id="SVGRepo_bgCarrier" stroke-width="0"/>
<g id="SVGRepo_tracerCarrier" stroke-linecap="round" stroke-linejoin="round"/>
<g id="SVGRepo_iconCarrier"> <path d="M6.5 0a.5.5 0 0 0 0 1H7v1.07A7.001 7.001 0 0 0 8 16a7 7 0 0 0 5.29-11.584.531.531 0 0 0 .013-.012l.354-.354.353.354a.5.5 0 1 0 .707-.707l-1.414-1.415a.5.5 0 1 0-.707.707l.354.354-.354.354a.717.717 0 0 0-.012.012A6.973 6.973 0 0 0 9 2.071V1h.5a.5.5 0 0 0 0-1h-3zm2 5.6V9a.5.5 0 0 1-.5.5H4.5a.5.5 0 0 1 0-1h3V5.6a.5.5 0 1 1 1 0z"/> </g>
</svg>